<?xml version="1.0" standalone="no"?><!DOCTYPE svg PUBLIC "-//W3C//DTD SVG 1.1//EN" "http://www.w3.org/Graphics/SVG/1.1/DTD/svg11.dtd"><svg t="1648716333540" class="icon" viewBox="0 0 1024 1024" version="1.1" xmlns="http://www.w3.org/2000/svg" p-id="33618" xmlns:xlink="http://www.w3.org/1999/xlink" width="200" height="200"><defs><style type="text/css"></style></defs><path d="M939.99104 312.38656L774.7584 147.15904a59.45856 59.45856 0 0 0-46.78656-17.26976 57.3184 57.3184 0 0 0-4.80256-0.21504H635.136l-6.1696 3.43552c-32.60928 18.14016-74.22464 28.12928-117.1712 28.12928-42.94656 0-84.5568-9.98912-117.16608-28.12928l-6.17472-3.43552H300.42112a59.98592 59.98592 0 0 0-53.05344 31.68768l-163.32288 163.328C72.77056 335.96928 66.56 350.95552 66.56 366.8992s6.21056 30.93504 17.4848 42.20928l119.33184 119.33184a59.19232 59.19232 0 0 0 36.7872 17.21856v288.39936c0 33.2288 27.0336 60.26752 60.2624 60.26752h422.74304c33.2288 0 60.26752-27.03872 60.26752-60.26752V533.4016a59.20256 59.20256 0 0 0 37.21728-17.26976l119.3472-119.33184c23.25504-23.2704 23.25504-61.14304-0.01024-84.41344z m-38.52288 45.89568L782.1312 477.6192a5.05344 5.05344 0 0 1-3.65056 1.5104c-0.9472 0-2.34496-0.24576-3.59424-1.42336l-45.93664-43.36128v399.7184c0 3.2-2.59584 5.79072-5.79072 5.79072H300.42112a5.7856 5.7856 0 0 1-5.7856-5.79072V448.5632l-45.57824 41.50272c-1.23392 1.1264-2.60096 1.36192-3.52256 1.36192a5.06368 5.06368 0 0 1-3.64032-1.50528L122.56256 370.5856c-1.26464-1.25952-1.52576-2.69824-1.52576-3.6864s0.26624-2.42688 1.52576-3.69152L287.4368 198.33344l5.26848-4.72576 2.3552-5.83168a5.79584 5.79584 0 0 1 5.36576-3.63008h74.12224c39.86432 20.67456 87.1424 31.55968 137.24672 31.55968 50.10944 0 97.38752-10.88512 137.25696-31.55968h74.08128c0.29696 0.01024 0.5888 0.05632 0.8704 0.09728l3.89632 0.55808 3.88608-0.5632c1.23904-0.17408 2.88256-0.13824 4.4544 1.4336l165.23264 165.22752a5.2224 5.2224 0 0 1-0.00512 7.38304z" fill="#e6e6e6" p-id="33619"></path></svg>