<?xml version="1.0" standalone="no"?><!DOCTYPE svg PUBLIC "-//W3C//DTD SVG 1.1//EN" "http://www.w3.org/Graphics/SVG/1.1/DTD/svg11.dtd"><svg t="1648713123328" class="icon" viewBox="0 0 1024 1024" version="1.1" xmlns="http://www.w3.org/2000/svg" p-id="21056" xmlns:xlink="http://www.w3.org/1999/xlink" width="200" height="200"><defs><style type="text/css"></style></defs><path d="M513 456.8c-31.1 0-56.4 25.2-56.4 56.4s25.2 56.4 56.4 56.4 56.4-25.3 56.4-56.4c0-31.2-25.2-56.4-56.4-56.4z" fill="#e6e6e6" p-id="21057"></path><path d="M513 405.3c-59.5 0-107.9 48.4-107.9 107.8 0 59.5 48.4 107.9 107.9 107.9 59.5 0 107.9-48.4 107.9-107.9 0-59.4-48.4-107.8-107.9-107.8z m0 176.7c-38 0-68.8-30.9-68.8-68.8s30.9-68.8 68.8-68.8c38 0 68.8 30.9 68.8 68.8S550.9 582 513 582zM589.6 420.5l188.2-226.7c-14.2-11.8-29.2-22.6-44.9-32.4L576.4 411.2c4.6 2.8 9.1 5.9 13.2 9.3zM436.1 605.5L246.5 831c14.3 12 29.4 23 45.2 33l157.4-249.1c-4.5-2.8-8.9-5.9-13-9.4z" fill="#e6e6e6" p-id="21058"></path><path d="M392.7 513.2c0-66.3 53.9-120.3 120.3-120.3 19.7 0 38.3 4.8 54.7 13.3l132-263.5C643.5 114.3 580.1 98.2 513 98.2c-228.8 0-415 186.2-415 415 0 50.1 8.9 98.2 25.3 142.8l276.9-101.3c-4.7-13-7.5-26.9-7.5-41.5zM903.2 372l-277.6 99.5c4.8 13 7.6 27 7.6 41.7 0 66.3-54 120.3-120.3 120.3-19.9 0-38.6-4.9-55.2-13.5l-135 261.9c57 29.6 121.7 46.4 190.2 46.4 228.8 0 415-186.2 415-415 0.1-49.7-8.6-97.2-24.7-141.3z" fill="#e6e6e6" p-id="21059"></path></svg>