<?xml version="1.0" standalone="no"?><!DOCTYPE svg PUBLIC "-//W3C//DTD SVG 1.1//EN" "http://www.w3.org/Graphics/SVG/1.1/DTD/svg11.dtd"><svg t="1648711870316" class="icon" viewBox="0 0 1059 1024" version="1.1" xmlns="http://www.w3.org/2000/svg" p-id="10436" xmlns:xlink="http://www.w3.org/1999/xlink" width="206.8359375" height="200"><defs><style type="text/css"></style></defs><path d="M463.65500237 773.18500475a352.19666903 352.19666903 0 1 1 352.19666903-352.19666904 352.57094797 352.57094797 0 0 1-352.19666904 352.19666904z m0-641.95110188a289.81681265 289.81681265 0 1 0 289.81681265 289.81681266A290.12871176 290.12871176 0 0 0 463.65500237 131.23390287z" p-id="10437" fill="#e6e6e6"></path><path d="M952.6506972 912.47922422a31.18992819 31.18992819 0 0 1-21.77057017-8.85793963L679.61406566 657.96941048a31.18992819 31.18992819 0 0 1 43.66589914-44.60159729l251.26606138 245.65187411a31.18992819 31.18992819 0 0 1-21.83294917 53.52191674z" p-id="10438" fill="#e6e6e6"></path></svg>